<svg xmlns="http://www.w3.org/2000/svg" xmlns:xlink="http://www.w3.org/1999/xlink" id="Layer_1" x="0px" y="0px" viewBox="0 0 401.9 204.3" style="enable-background:new 0 0 401.9 204.3;" xml:space="preserve"> <style type="text/css"> .st0{fill:#1E2D5B;} .st1{fill:url(#SVGID_1_);} .st2{fill:url(#SVGID_2_);} .st3{fill:url(#SVGID_3_);} .st4{fill:#24B8EB;} .st5{fill:url(#SVGID_4_);} .st6{fill:url(#SVGID_5_);} .st7{fill:url(#SVGID_6_);} .st8{fill:url(#SVGID_7_);} .st9{fill:url(#SVGID_8_);} .st10{fill:url(#SVGID_9_);} .st11{fill:url(#SVGID_10_);} .st12{fill:url(#SVGID_11_);} .st13{clip-path:url(#SVGID_13_);fill:url(#SVGID_14_);} .st14{clip-path:url(#SVGID_13_);fill:url(#SVGID_15_);} .st15{fill:#1F2C5E;} .st16{fill:#FFFFFF;} .st17{fill:url(#SVGID_16_);} .st18{fill:#21356B;} .st19{opacity:0.5;clip-path:url(#SVGID_18_);fill:url(#SVGID_19_);} .st20{fill:#6E6F71;} </style> <g> <path class="st0" d="M133.8,114.9c8.6-1.3,18-2.3,27.9-3.1l-0.4,3.6h-27.6L133.8,114.9z"></path> <path class="st0" d="M174.2,10.5l-12.1,97.9c-10.4,1.2-19.9,2.8-28.1,4.8l14.5-102.7H174.2z"></path> <linearGradient id="SVGID_1_" gradientUnits="userSpaceOnUse" x1="199.33" y1="72.29" x2="199.33" y2="106.82"> <stop offset="0" style="stop-color:#24B8EB"></stop> <stop offset="0.8" style="stop-color:#1F2C5E"></stop> </linearGradient> <path class="st1" d="M199.3,106.3c-6.4,0-12.7,0.2-18.7,0.5l18.7-34.5l18.7,34.5C212,106.5,205.7,106.3,199.3,106.3z"></path> <linearGradient id="SVGID_2_" gradientUnits="userSpaceOnUse" x1="199.33" y1="110.41" x2="199.33" y2="112.16"> <stop offset="0" style="stop-color:#24B8EB"></stop> <stop offset="0.8" style="stop-color:#1F2C5E"></stop> </linearGradient> <path class="st2" d="M220.9,112.2h-43.2l0.3-0.6l0.4-0.7c6.8-0.3,13.8-0.4,20.9-0.4s14.1,0.1,20.9,0.4l0.4,0.7L220.9,112.2z"></path> <path class="st0" d="M264.6,113.1c-8.2-2-17.7-3.7-28.1-4.8l-12.1-97.9h25.7L264.6,113.1z"></path> <path class="st0" d="M264.9,115.4h-27.5l-0.5-3.6c9.9,0.7,19.3,1.8,27.9,3.1L264.9,115.4z"></path> <linearGradient id="SVGID_3_" gradientUnits="userSpaceOnUse" x1="212.8297" y1="64.4567" x2="230.9863" y2="61.2552"> <stop offset="0" style="stop-color:#F3FAFE"></stop> <stop offset="1" style="stop-color:#24B8EB"></stop> </linearGradient> <path class="st3" d="M207.8,47.4l0.7-1.5l25.6,60.5l-1.3-2.5L207.8,47.4z M212.8,36.3l-1.3,2.9l24.4,70.6l0.3,0.6L212.8,36.3z M210.5,41.5l-1.1,2.4l25.6,64.2l0.6,1.1L210.5,41.5z M236.8,111.7l0.2,0.4L224.4,10.4l-1.9,4.3L236.8,111.7z M206.9,49.3l-0.6,1.4 l22.3,44.6L206.9,49.3z M221.1,17.9l-1.7,3.9l17.3,89.8l0.1,0.1L221.1,17.9z M215.2,31l-1.3,3l22.4,76.8l0.1,0.3L215.2,31z M218.1,24.6l-1.7,3.8l20.1,82.8l0.1,0.2L218.1,24.6z"></path> <g> <g> <polygon class="st4" points="165.8,103.8 164.6,106.3 190.2,45.9 190.9,47.4 "></polygon> <polygon class="st4" points="185.9,36.3 187.2,39.3 162.9,109.8 162.6,110.4 "></polygon> <polygon class="st4" points="188.2,41.5 189.3,43.9 163.7,108.1 163.2,109.2 "></polygon> <polygon class="st4" points="161.9,111.7 161.7,112.2 174.2,10.4 176.2,14.7 "></polygon> <polygon class="st4" points="191.7,49.3 192.3,50.7 170.1,95.3 "></polygon> <polygon class="st4" points="177.6,17.9 179.3,21.7 162,111.5 161.9,111.6 "></polygon> <polygon class="st4" points="183.5,31 184.8,33.9 162.4,110.7 162.3,111 "></polygon> <polygon class="st4" points="180.6,24.6 182.3,28.3 162.2,111.2 162.1,111.4 "></polygon> </g> <g> <linearGradient id="SVGID_4_" gradientUnits="userSpaceOnUse" x1="183.0715" y1="68.6738" x2="167.5574" y2="61.107"> <stop offset="0" style="stop-color:#F3FAFE"></stop> <stop offset="1" style="stop-color:#24B8EB"></stop> </linearGradient> <polygon class="st5" points="165.8,103.8 164.6,106.3 190.2,45.9 190.9,47.4 "></polygon> <linearGradient id="SVGID_5_" gradientUnits="userSpaceOnUse" x1="183.0715" y1="68.6738" x2="167.5574" y2="61.107"> <stop offset="0" style="stop-color:#F3FAFE"></stop> <stop offset="1" style="stop-color:#24B8EB"></stop> </linearGradient> <polygon class="st6" points="185.9,36.3 187.2,39.3 162.9,109.8 162.6,110.4 "></polygon> <linearGradient id="SVGID_6_" gradientUnits="userSpaceOnUse" x1="183.0715" y1="68.6738" x2="167.5574" y2="61.107"> <stop offset="0" style="stop-color:#F3FAFE"></stop> <stop offset="1" style="stop-color:#24B8EB"></stop> </linearGradient> <polygon class="st7" points="188.2,41.5 189.3,43.9 163.7,108.1 163.2,109.2 "></polygon> <linearGradient id="SVGID_7_" gradientUnits="userSpaceOnUse" x1="183.0715" y1="68.6738" x2="167.5574" y2="61.107"> <stop offset="0" style="stop-color:#F3FAFE"></stop> <stop offset="1" style="stop-color:#24B8EB"></stop> </linearGradient> <polygon class="st8" points="161.9,111.7 161.7,112.2 174.2,10.4 176.2,14.7 "></polygon> <linearGradient id="SVGID_8_" gradientUnits="userSpaceOnUse" x1="183.0715" y1="68.6738" x2="167.5574" y2="61.107"> <stop offset="0" style="stop-color:#F3FAFE"></stop> <stop offset="1" style="stop-color:#24B8EB"></stop> </linearGradient> <polygon class="st9" points="191.7,49.3 192.3,50.7 170.1,95.3 "></polygon> <linearGradient id="SVGID_9_" gradientUnits="userSpaceOnUse" x1="183.0715" y1="68.6738" x2="167.5574" y2="61.107"> <stop offset="0" style="stop-color:#F3FAFE"></stop> <stop offset="1" style="stop-color:#24B8EB"></stop> </linearGradient> <polygon class="st10" points="177.6,17.9 179.3,21.7 162,111.5 161.9,111.6 "></polygon> <linearGradient id="SVGID_10_" gradientUnits="userSpaceOnUse" x1="183.0715" y1="68.6738" x2="167.5574" y2="61.107"> <stop offset="0" style="stop-color:#F3FAFE"></stop> <stop offset="1" style="stop-color:#24B8EB"></stop> </linearGradient> <polygon class="st11" points="183.5,31 184.8,33.9 162.4,110.7 162.3,111 "></polygon> <linearGradient id="SVGID_11_" gradientUnits="userSpaceOnUse" x1="183.0715" y1="68.6738" x2="167.5574" y2="61.107"> <stop offset="0" style="stop-color:#F3FAFE"></stop> <stop offset="1" style="stop-color:#24B8EB"></stop> </linearGradient> <polygon class="st12" points="180.6,24.6 182.3,28.3 162.2,111.2 162.1,111.4 "></polygon> </g> </g> <g> <defs> <path id="SVGID_12_" d="M148.6,10.4l-14.8,105h27.5l8.8-105H148.6z M264.9,115.4l-14.8-105h-21.5l8.8,105H264.9z"></path> </defs> <clipPath id="SVGID_13_"> <use xlink:href="#SVGID_12_" style="overflow:visible;"></use> </clipPath> <radialGradient id="SVGID_14_" cx="199.3303" cy="49.267" r="68.6162" gradientUnits="userSpaceOnUse"> <stop offset="0.2927" style="stop-color:#24B8EB"></stop> <stop offset="0.9366" style="stop-color:#24B8EB;stop-opacity:0"></stop> </radialGradient> <circle class="st13" cx="199.3" cy="49.3" r="68.6"></circle> <radialGradient id="SVGID_15_" cx="199.3303" cy="19.1744" r="55.3764" gradientUnits="userSpaceOnUse"> <stop offset="0.2927" style="stop-color:#BAE6FB"></stop> <stop offset="0.9463" style="stop-color:#BAE6FB;stop-opacity:0"></stop> </radialGradient> <circle class="st14" cx="199.3" cy="19.2" r="55.4"></circle> </g> <g> <path class="st15" d="M34.4,163.1l-2-15l-6.9,15h-2.1l-6.9-15l-2,15H7.3l3.9-26h7.2l6.1,14.1l6.2-14.1h7.1l3.9,26H34.4z"></path> <path class="st15" d="M61,158.9h-9.2l-1.4,4.2h-7.7l10.2-26h7l10.4,26h-7.9L61,158.9z M56.4,145.3l-2.8,8.1h5.7L56.4,145.3z"></path> <path class="st15" d="M87,163.1l-4.3-8l-4.3,8h-8.1l7.8-13.5l-7.4-12.5h8.1l3.9,7.4l3.9-7.4h8l-7.3,12.6l7.8,13.4H87z"></path> <path class="st15" d="M97.5,137.1h7.3v26h-7.3V137.1z"></path> <path class="st15" d="M135.5,163.1l-2-15l-6.9,15h-2.1l-6.9-15l-2,15h-7.3l3.9-26h7.2l6.1,14.1l6.2-14.1h7.1l3.9,26H135.5z"></path> <path class="st15" d="M145.7,153.1v-15.9h7.3v15.8c0,2.5,1.6,4.2,4,4.2c2.4,0,4-1.6,4-4.2v-15.8h7.3v15.9 c0,6.4-4.7,10.7-11.3,10.7C150.4,163.8,145.7,159.5,145.7,153.1z"></path> <path class="st15" d="M198.6,163.1l-2-15l-6.9,15h-2.1l-6.9-15l-2,15h-7.3l3.9-26h7.2l6.1,14.1l6.2-14.1h7.1l3.9,26H198.6z"></path> <path class="st15" d="M227.8,145c0,4.5-3.5,7.8-8.2,7.8h-7.5v10.3h-1.2v-26h8.8C224.2,137.1,227.8,140.5,227.8,145z M226.5,145 c0-3.8-3-6.6-7-6.6h-7.5v13.3h7.5C223.6,151.6,226.5,148.8,226.5,145z"></path> <path class="st15" d="M243.6,151.8l6.8,11.3H249l-6.7-11.3h-8v11.3h-1.2v-26h9.4c4.6,0,7.9,3.1,7.9,7.4 C250.4,148.4,247.6,151.3,243.6,151.8z M234.3,150.7h8.2c3.9,0,6.7-2.6,6.7-6.2c0-3.6-2.8-6.2-6.7-6.2h-8.2V150.7z"></path> <path class="st15" d="M254.7,150.2c0-7.6,5.6-13.4,13.4-13.4c7.8,0,13.4,5.8,13.4,13.4c0,7.6-5.6,13.4-13.4,13.4 C260.3,163.5,254.7,157.8,254.7,150.2z M280.2,150.2c0-7-5.1-12.2-12.2-12.2c-7.1,0-12.2,5.3-12.2,12.2c0,6.9,5.1,12.2,12.2,12.2 C275.2,162.3,280.2,157.1,280.2,150.2z"></path> <path class="st15" d="M304.5,145c0,4.5-3.5,7.8-8.2,7.8h-7.5v10.3h-1.2v-26h8.8C300.9,137.1,304.5,140.5,304.5,145z M303.2,145 c0-3.8-3-6.6-7-6.6h-7.5v13.3h7.5C300.3,151.6,303.2,148.8,303.2,145z"></path> <path class="st15" d="M324.2,162v1.2h-14.4v-26h14v1.2H311V149h11.8v1.2H311V162H324.2z"></path> <path class="st15" d="M340.4,151.8l6.8,11.3h-1.4l-6.7-11.3h-8v11.3h-1.2v-26h9.4c4.6,0,7.9,3.1,7.9,7.4 C347.3,148.4,344.4,151.3,340.4,151.8z M331.1,150.7h8.2c3.9,0,6.7-2.6,6.7-6.2c0-3.6-2.8-6.2-6.7-6.2h-8.2V150.7z"></path> <path class="st15" d="M367.9,138.3h-8.5v24.8h-1.2v-24.8h-8.5v-1.2h18.2V138.3z"></path> <path class="st15" d="M381.2,152.9v10.3h-1.2v-10.2l-9.9-15.7h1.4l9.2,14.6l9.3-14.6h1.4L381.2,152.9z"></path> </g> <path class="st16" d="M134,113.1l-0.2,1.7c-4.5,0.7-8.7,1.4-12.7,2.2"></path> <path class="st16" d="M279.2,117.7c-16.2-3.1-36.3-5.3-58.6-6.1c-6.9-0.3-14-0.4-21.3-0.4s-14.4,0.1-21.3,0.4 c-22.3,0.8-42.4,3-58.6,6.1c0.5-0.2,1.1-0.4,1.7-0.6c0,0,0,0,0,0c16-3.1,35.7-5.3,57.4-6.2c6.8-0.3,13.8-0.4,20.9-0.4 s14.1,0.1,20.9,0.4c21.6,0.9,41.3,3.1,57.3,6.2c0,0,0,0,0,0C278.1,117.3,278.7,117.5,279.2,117.7z"></path> <linearGradient id="SVGID_16_" gradientUnits="userSpaceOnUse" x1="100.7807" y1="116.505" x2="296.6558" y2="116.505"> <stop offset="9.756098e-03" style="stop-color:#F3FAFE"></stop> <stop offset="0.2927" style="stop-color:#BAE6FB"></stop> <stop offset="0.522" style="stop-color:#24B8EB"></stop> <stop offset="0.7512" style="stop-color:#BAE6FB"></stop> <stop offset="1" style="stop-color:#F3FAFE"></stop> </linearGradient> <path class="st17" d="M299.2,122.6c-26.6-4.4-61.6-7-99.9-7c-38.3,0-73.3,2.6-99.9,7c6.1-2.1,13.4-3.9,21.6-5.6c0,0,0,0,0,0 c16-3.1,35.7-5.3,57.4-6.2c6.8-0.3,13.8-0.4,20.9-0.4s14.1,0.1,20.9,0.4c21.6,0.9,41.3,3.1,57.3,6.2c0,0,0,0,0,0 C285.8,118.7,293.1,120.5,299.2,122.6z"></path> <path class="st18" d="M199.3,107.1c11.9,0,22.8,0.4,31.1,1.1c-6.8-1.2-18.2-2.8-31.1-2.8c-12.9,0-24.3,1.6-31.1,2.8 C176.5,107.5,187.4,107.1,199.3,107.1z"></path> <g> <defs> <path id="SVGID_17_" d="M148.6,10.4h25.7l-13,105h-27.5L148.6,10.4z M177.7,112.2h43.2l-21.6-39.9L177.7,112.2z M250.1,10.4 h-25.7l13,105h27.5L250.1,10.4z"></path> </defs> <clipPath id="SVGID_18_"> <use xlink:href="#SVGID_17_" style="overflow:visible;"></use> </clipPath> <radialGradient id="SVGID_19_" cx="48.2235" cy="132.4326" r="132.0172" gradientTransform="matrix(0.7445 0 0 0.4777 164.4652 69.1654)" gradientUnits="userSpaceOnUse"> <stop offset="0.1707" style="stop-color:#FFFFFF;stop-opacity:0"></stop> <stop offset="1" style="stop-color:#FFFFFF"></stop> </radialGradient> <path class="st19" d="M199.3,111.3c38.3,0,73.3,5.6,99.9,14.9c-21.7-15.6-58.3-53.9-99.9-53.9c-41.5,0-78.2,38.2-99.9,53.9 C126,116.9,161,111.3,199.3,111.3z"></path> </g> </g> <g> <path class="st20" d="M50.9,183.3v8.4h-1.8v-18.6h7.3c2.1,0,3.7,0.4,4.7,1.2c1.1,0.8,1.6,2,1.6,3.7c0,1.2-0.2,2.1-0.7,2.8 c-0.5,0.7-1.2,1.3-2.3,1.8c0.5,0.2,1,0.4,1.3,0.8c0.3,0.4,0.5,0.8,0.7,1.2c0.1,0.4,0.2,0.9,0.3,1.4c0.1,0.5,0.1,1,0.1,1.7 c0,1.3,0.1,2.3,0.2,2.8c0.1,0.5,0.3,0.9,0.5,1.1v0.2h-1.9c-0.2-0.4-0.4-0.9-0.4-1.5c-0.1-0.7-0.2-1.5-0.2-2.5 c-0.1-1.1-0.1-1.8-0.2-2.1c-0.2-0.9-0.6-1.5-1.2-1.8c-0.6-0.3-1.4-0.5-2.5-0.5H50.9z M56.4,181.8c1.4,0,2.5-0.3,3.4-0.9 c0.8-0.6,1.3-1.5,1.3-2.8c0-0.7-0.1-1.2-0.4-1.7c-0.2-0.5-0.6-0.8-1-1.1c-0.4-0.3-0.9-0.4-1.4-0.5c-0.5-0.1-1.1-0.2-1.7-0.2h-5.6 v7.1H56.4z"></path> <path class="st20" d="M67.1,185.4c0,1.5,0.4,2.8,1.2,3.8c0.8,1,1.9,1.5,3.3,1.5c1,0,1.9-0.3,2.6-0.8c0.7-0.5,1.2-1.3,1.4-2.3h1.7 c-0.4,1.4-1.1,2.5-2,3.3c-0.9,0.8-2.2,1.2-3.8,1.2c-1,0-1.9-0.2-2.7-0.5s-1.4-0.8-1.9-1.5s-0.9-1.4-1.1-2.2 c-0.2-0.8-0.4-1.8-0.4-2.8c0-1,0.1-1.9,0.4-2.8c0.3-0.9,0.7-1.6,1.2-2.3c0.5-0.7,1.2-1.2,1.9-1.5c0.8-0.4,1.6-0.5,2.5-0.5 c1.8,0,3.3,0.6,4.3,1.9c1,1.3,1.6,3.1,1.6,5.5H67.1z M75.8,184.1c0-1.4-0.4-2.5-1.1-3.4c-0.7-0.9-1.8-1.3-3.1-1.3 c-1.3,0-2.3,0.4-3.1,1.3c-0.8,0.9-1.2,2-1.4,3.4H75.8z"></path> <path class="st20" d="M86.6,183.9c0.3,0,0.7-0.1,1.1-0.2c0.4-0.1,0.7-0.2,0.9-0.3c0.2-0.1,0.4-0.3,0.5-0.5c0.1-0.2,0.1-0.5,0.1-0.9 c0-0.8-0.3-1.5-0.8-2c-0.5-0.5-1.4-0.7-2.5-0.7s-2.1,0.2-2.7,0.7c-0.7,0.5-1,1.2-1.2,2.3h-1.6c0.1-1.5,0.7-2.6,1.7-3.3 c1-0.7,2.3-1.1,3.8-1.1c1.5,0,2.7,0.3,3.5,1c0.9,0.7,1.3,1.7,1.3,3.2v7.3c0,0.8,0.2,1.2,0.7,1.2c0.2,0,0.5-0.1,0.9-0.2v1.2 c-0.2,0.1-0.4,0.1-0.6,0.2s-0.4,0.1-0.6,0.1c-0.2,0-0.5,0-0.7-0.1c-0.5-0.1-0.8-0.3-1-0.6s-0.3-0.8-0.3-1.4 c-0.6,0.7-1.4,1.3-2.2,1.6c-0.9,0.4-1.8,0.6-2.7,0.6c-1.3,0-2.3-0.3-3.2-1c-0.9-0.7-1.3-1.6-1.3-2.8c0-2.3,1.6-3.6,4.7-4 L86.6,183.9z M89.2,184.7c-0.6,0.2-1.2,0.4-1.8,0.5s-1.3,0.2-2.2,0.2c-1.2,0.1-2.2,0.4-2.8,0.8c-0.6,0.5-1,1.1-1,2 c0,0.8,0.3,1.4,0.9,1.8c0.6,0.4,1.2,0.6,2,0.6c0.6,0,1.2-0.1,1.8-0.2c0.6-0.2,1.1-0.4,1.6-0.7c0.5-0.3,0.8-0.7,1.1-1.2 s0.4-1.1,0.4-1.7V184.7z"></path> <path class="st20" d="M95,191.7v-18.6h1.5v18.6H95z"></path> <path class="st20" d="M107.9,191.7v-18.6h12.3v1.5h-10.6v6.7h9.6v1.5h-9.6v7.4h10.8v1.5H107.9z"></path> <path class="st20" d="M124.3,187.5c0.2,1.1,0.7,1.9,1.3,2.4c0.6,0.5,1.5,0.7,2.7,0.7c1.1,0,1.9-0.2,2.4-0.7 c0.6-0.5,0.9-1.1,0.9-1.8c0-0.4-0.1-0.8-0.3-1.1c-0.2-0.3-0.5-0.5-0.8-0.7c-0.3-0.2-0.7-0.3-1.1-0.4s-0.9-0.2-1.5-0.4 c-0.8-0.2-1.4-0.3-1.9-0.5c-0.5-0.1-1-0.3-1.4-0.6c-0.4-0.3-0.8-0.6-1.1-1.1c-0.3-0.5-0.4-1-0.4-1.7c0-1.1,0.4-2.1,1.3-2.8 c0.8-0.7,2-1.1,3.4-1.1c1.5,0,2.7,0.3,3.6,1c0.9,0.7,1.4,1.7,1.6,3.2h-1.6c-0.1-1-0.5-1.7-1.1-2.1c-0.6-0.4-1.4-0.7-2.5-0.7 c-1,0-1.7,0.2-2.2,0.6c-0.5,0.4-0.8,1-0.8,1.7c0,0.4,0.1,0.7,0.3,1s0.5,0.5,0.8,0.7c0.3,0.2,0.7,0.3,1.1,0.4 c0.4,0.1,0.9,0.3,1.6,0.4c0.8,0.2,1.5,0.4,1.9,0.5c0.5,0.2,0.9,0.4,1.4,0.7c0.5,0.3,0.8,0.6,1.1,1.1c0.3,0.4,0.4,1,0.4,1.7 c0,1.2-0.5,2.2-1.5,2.9c-1,0.7-2.3,1-3.9,1c-1.5,0-2.7-0.4-3.6-1.3c-0.9-0.9-1.4-1.9-1.4-3.2H124.3z"></path> <path class="st20" d="M141,191.8c0,0-0.1,0-0.3,0.1c-0.6,0.2-1.1,0.2-1.5,0.2c-0.8,0-1.4-0.2-1.8-0.6c-0.4-0.4-0.6-1.1-0.6-2v-9.8 H135v-1.3h1.9v-3.7h1.5v3.7h2.5v1.3h-2.5v9.1c0,0.7,0.1,1.2,0.2,1.5c0.1,0.3,0.5,0.4,1.1,0.4c0.4,0,0.8-0.1,1.3-0.2V191.8z"></path> <path class="st20" d="M149.6,183.9c0.3,0,0.7-0.1,1.1-0.2c0.4-0.1,0.7-0.2,0.9-0.3c0.2-0.1,0.4-0.3,0.5-0.5 c0.1-0.2,0.1-0.5,0.1-0.9c0-0.8-0.3-1.5-0.8-2c-0.5-0.5-1.4-0.7-2.5-0.7s-2.1,0.2-2.7,0.7c-0.7,0.5-1,1.2-1.2,2.3h-1.6 c0.1-1.5,0.7-2.6,1.7-3.3c1-0.7,2.3-1.1,3.8-1.1c1.5,0,2.7,0.3,3.5,1c0.9,0.7,1.3,1.7,1.3,3.2v7.3c0,0.8,0.2,1.2,0.7,1.2 c0.2,0,0.5-0.1,0.9-0.2v1.2c-0.2,0.1-0.4,0.1-0.6,0.2s-0.4,0.1-0.6,0.1c-0.2,0-0.5,0-0.7-0.1c-0.5-0.1-0.8-0.3-1-0.6 s-0.3-0.8-0.3-1.4c-0.6,0.7-1.4,1.3-2.2,1.6c-0.9,0.4-1.8,0.6-2.7,0.6c-1.3,0-2.3-0.3-3.2-1c-0.9-0.7-1.3-1.6-1.3-2.8 c0-2.3,1.6-3.6,4.7-4L149.6,183.9z M152.2,184.7c-0.6,0.2-1.2,0.4-1.8,0.5s-1.3,0.2-2.2,0.2c-1.2,0.1-2.2,0.4-2.8,0.8 c-0.6,0.5-1,1.1-1,2c0,0.8,0.3,1.4,0.9,1.8c0.6,0.4,1.2,0.6,2,0.6c0.6,0,1.2-0.1,1.8-0.2c0.6-0.2,1.1-0.4,1.6-0.7 c0.5-0.3,0.8-0.7,1.1-1.2s0.4-1.1,0.4-1.7V184.7z"></path> <path class="st20" d="M162.5,191.8c0,0-0.1,0-0.3,0.1c-0.6,0.2-1.1,0.2-1.5,0.2c-0.8,0-1.4-0.2-1.8-0.6c-0.4-0.4-0.6-1.1-0.6-2 v-9.8h-1.9v-1.3h1.9v-3.7h1.5v3.7h2.5v1.3h-2.5v9.1c0,0.7,0.1,1.2,0.2,1.5c0.1,0.3,0.5,0.4,1.1,0.4c0.4,0,0.8-0.1,1.3-0.2V191.8z"></path> <path class="st20" d="M165.9,185.4c0,1.5,0.4,2.8,1.2,3.8c0.8,1,1.9,1.5,3.3,1.5c1,0,1.9-0.3,2.6-0.8c0.7-0.5,1.2-1.3,1.4-2.3h1.7 c-0.4,1.4-1.1,2.5-2,3.3c-0.9,0.8-2.2,1.2-3.8,1.2c-1,0-1.9-0.2-2.7-0.5s-1.4-0.8-1.9-1.5s-0.9-1.4-1.1-2.2 c-0.2-0.8-0.4-1.8-0.4-2.8c0-1,0.1-1.9,0.4-2.8c0.3-0.9,0.7-1.6,1.2-2.3c0.5-0.7,1.2-1.2,1.9-1.5c0.8-0.4,1.6-0.5,2.5-0.5 c1.8,0,3.3,0.6,4.3,1.9c1,1.3,1.6,3.1,1.6,5.5H165.9z M174.6,184.1c0-1.4-0.4-2.5-1.1-3.4c-0.7-0.9-1.8-1.3-3.1-1.3 c-1.3,0-2.3,0.4-3.1,1.3c-0.8,0.9-1.2,2-1.4,3.4H174.6z"></path> <path class="st20" d="M197.2,186.9c0.3-0.5,0.5-1,0.6-1.6c0.1-0.6,0.2-1.2,0.2-2h1.5c0,0.9-0.2,1.8-0.3,2.6 c-0.2,0.8-0.5,1.5-0.9,2.2l3,3.6h-2.1l-1.8-2.2c-0.8,0.9-1.6,1.6-2.6,2s-2,0.6-3.3,0.6c-0.8,0-1.6-0.1-2.3-0.4 c-0.7-0.3-1.3-0.6-1.9-1.1c-0.5-0.5-0.9-1.1-1.2-1.8c-0.3-0.7-0.4-1.4-0.4-2.2c0-1.3,0.4-2.4,1.2-3.4c0.8-1,1.9-1.7,3.2-2.4 c-0.6-0.7-1.1-1.4-1.4-2c-0.4-0.7-0.5-1.4-0.5-2.1c0-1.1,0.4-2,1.2-2.7s1.8-1,3-1c1.1,0,2.1,0.3,2.8,1c0.7,0.7,1.1,1.5,1.1,2.5 c0,0.6-0.1,1.1-0.3,1.6c-0.2,0.5-0.4,0.9-0.8,1.2c-0.3,0.4-0.7,0.7-1.1,0.9c-0.4,0.3-0.9,0.6-1.5,1h0L197.2,186.9z M191,182 c-1.1,0.5-1.9,1.2-2.6,2c-0.7,0.8-1,1.8-1,2.7c0,1.2,0.4,2.2,1.2,2.9c0.8,0.7,1.8,1.1,3,1.1c0.9,0,1.8-0.2,2.6-0.6 c0.8-0.4,1.5-1,2.2-1.8L191,182z M194.5,176.9c0-0.6-0.2-1.2-0.7-1.6c-0.4-0.5-1-0.7-1.7-0.7c-0.7,0-1.3,0.2-1.7,0.6 c-0.5,0.4-0.7,0.9-0.7,1.6c0,0.3,0.1,0.5,0.2,0.9c0.1,0.3,0.3,0.6,0.5,1c0.2,0.3,0.4,0.6,0.6,0.9c0.2,0.3,0.4,0.5,0.6,0.8l0.1-0.1 c0.7-0.4,1.2-0.8,1.6-1.1c0.4-0.3,0.7-0.8,1-1.2C194.5,177.5,194.5,177.2,194.5,176.9z"></path> <path class="st20" d="M224.2,178.5c-0.3-1.5-1-2.7-2-3.4c-1-0.7-2.3-1-3.9-1c-1.1,0-2,0.2-2.8,0.6c-0.8,0.4-1.5,1-2,1.8 c-0.5,0.8-0.9,1.6-1.2,2.6c-0.2,1-0.4,2-0.4,3.2c0,1.1,0.1,2.1,0.3,3.1c0.2,1,0.6,1.9,1.1,2.7c0.5,0.8,1.2,1.4,2,1.9 s1.9,0.7,3.1,0.7c1.5,0,2.8-0.5,3.8-1.4s1.7-2.2,2-3.7h1.8c-0.2,0.9-0.5,1.8-0.9,2.6c-0.4,0.8-0.9,1.5-1.6,2.1 c-0.6,0.6-1.4,1.1-2.3,1.4s-2,0.5-3.2,0.5c-1.4,0-2.6-0.3-3.6-0.8s-1.9-1.2-2.5-2.1s-1.1-1.9-1.4-3.1c-0.3-1.2-0.5-2.4-0.5-3.8 c0-1.7,0.2-3.2,0.6-4.5c0.4-1.3,1-2.3,1.8-3.1c0.8-0.8,1.7-1.4,2.7-1.7c1-0.4,2.2-0.5,3.5-0.5c1.9,0,3.6,0.5,4.8,1.5 c1.3,1,2.1,2.5,2.4,4.4H224.2z"></path> <path class="st20" d="M230.3,190.2c-1.2-1.2-1.8-2.9-1.8-5.2c0-2,0.5-3.7,1.6-5.1s2.6-2,4.6-2c2,0,3.5,0.7,4.6,2 c1.1,1.3,1.6,3,1.6,5.1c0,2.1-0.6,3.8-1.7,5.1c-1.1,1.3-2.6,1.9-4.5,1.9C232.9,192,231.5,191.4,230.3,190.2z M239,182.8 c-0.2-0.7-0.4-1.3-0.8-1.8c-0.4-0.5-0.8-0.9-1.4-1.2c-0.6-0.3-1.3-0.4-2.1-0.4c-0.8,0-1.5,0.2-2,0.5c-0.6,0.3-1.1,0.7-1.4,1.3 c-0.4,0.5-0.6,1.1-0.8,1.8c-0.2,0.7-0.3,1.4-0.3,2.1c0,1.7,0.4,3.1,1.2,4.1c0.8,1,1.9,1.5,3.3,1.5c0.8,0,1.5-0.2,2-0.5 c0.6-0.3,1-0.7,1.4-1.3c0.4-0.5,0.6-1.1,0.8-1.8s0.3-1.4,0.3-2.1C239.3,184.2,239.2,183.5,239,182.8z"></path> <path class="st20" d="M245.3,191.7h-1.5v-13.3h1.5v1.9c0.7-0.7,1.4-1.3,2-1.7c0.7-0.4,1.4-0.6,2.3-0.6c0.9,0,1.6,0.2,2.3,0.5 c0.7,0.3,1.3,0.8,1.7,1.5c0.3,0.4,0.5,0.9,0.6,1.3s0.1,1,0.1,1.7v8.7h-1.5V183c0-1.2-0.3-2.1-0.8-2.7s-1.4-0.9-2.6-0.9 c-0.9,0-1.7,0.2-2.3,0.7c-0.7,0.5-1.1,1.1-1.4,1.9c-0.1,0.4-0.2,0.8-0.3,1.1c0,0.4-0.1,0.8-0.1,1.4V191.7z"></path> <path class="st20" d="M259,187.5c0.2,1.1,0.7,1.9,1.3,2.4c0.6,0.5,1.5,0.7,2.7,0.7c1.1,0,1.9-0.2,2.4-0.7c0.6-0.5,0.9-1.1,0.9-1.8 c0-0.4-0.1-0.8-0.3-1.1c-0.2-0.3-0.5-0.5-0.8-0.7c-0.3-0.2-0.7-0.3-1.1-0.4s-0.9-0.2-1.5-0.4c-0.8-0.2-1.4-0.3-1.9-0.5 c-0.5-0.1-1-0.3-1.4-0.6c-0.4-0.3-0.8-0.6-1.1-1.1c-0.3-0.5-0.4-1-0.4-1.7c0-1.1,0.4-2.1,1.3-2.8c0.8-0.7,2-1.1,3.4-1.1 c1.5,0,2.7,0.3,3.6,1c0.9,0.7,1.4,1.7,1.6,3.2H266c-0.1-1-0.5-1.7-1.1-2.1c-0.6-0.4-1.4-0.7-2.5-0.7c-1,0-1.7,0.2-2.2,0.6 c-0.5,0.4-0.8,1-0.8,1.7c0,0.4,0.1,0.7,0.3,1s0.5,0.5,0.8,0.7c0.3,0.2,0.7,0.3,1.1,0.4c0.4,0.1,0.9,0.3,1.6,0.4 c0.8,0.2,1.5,0.4,1.9,0.5c0.5,0.2,0.9,0.4,1.4,0.7c0.5,0.3,0.8,0.6,1.1,1.1c0.3,0.4,0.4,1,0.4,1.7c0,1.2-0.5,2.2-1.5,2.9 c-1,0.7-2.3,1-3.9,1c-1.5,0-2.7-0.4-3.6-1.3c-0.9-0.9-1.4-1.9-1.4-3.2H259z"></path> <path class="st20" d="M280,178.4h1.5v13.3H280v-1.9c-0.6,0.7-1.2,1.2-1.8,1.6c-0.6,0.4-1.4,0.6-2.5,0.6c-0.9,0-1.6-0.1-2.2-0.4 c-0.6-0.2-1.1-0.6-1.5-1c-0.4-0.4-0.6-1-0.8-1.5s-0.3-1.3-0.3-2v-8.8h1.5v8.8c0,1.2,0.3,2.1,0.8,2.7s1.4,0.9,2.6,0.9 c1.3,0,2.2-0.5,3-1.4c0.7-0.9,1.1-2.2,1.1-3.6V178.4z"></path> <path class="st20" d="M285.5,191.7v-18.6h1.5v18.6H285.5z"></path> <path class="st20" d="M295.7,191.8c0,0-0.1,0-0.3,0.1c-0.6,0.2-1.1,0.2-1.5,0.2c-0.8,0-1.4-0.2-1.8-0.6c-0.4-0.4-0.6-1.1-0.6-2 v-9.8h-1.9v-1.3h1.9v-3.7h1.5v3.7h2.5v1.3h-2.5v9.1c0,0.7,0.1,1.2,0.2,1.5c0.1,0.3,0.5,0.4,1.1,0.4c0.4,0,0.8-0.1,1.3-0.2V191.8z"></path> <path class="st20" d="M304.3,183.9c0.3,0,0.7-0.1,1.1-0.2c0.4-0.1,0.7-0.2,0.9-0.3c0.2-0.1,0.4-0.3,0.5-0.5 c0.1-0.2,0.1-0.5,0.1-0.9c0-0.8-0.3-1.5-0.8-2c-0.5-0.5-1.4-0.7-2.5-0.7s-2.1,0.2-2.7,0.7c-0.7,0.5-1,1.2-1.2,2.3h-1.6 c0.1-1.5,0.7-2.6,1.7-3.3c1-0.7,2.3-1.1,3.8-1.1c1.5,0,2.7,0.3,3.5,1c0.9,0.7,1.3,1.7,1.3,3.2v7.3c0,0.8,0.2,1.2,0.7,1.2 c0.2,0,0.5-0.1,0.9-0.2v1.2c-0.2,0.1-0.4,0.1-0.6,0.2s-0.4,0.1-0.6,0.1c-0.2,0-0.5,0-0.7-0.1c-0.5-0.1-0.8-0.3-1-0.6 s-0.3-0.8-0.3-1.4c-0.6,0.7-1.4,1.3-2.2,1.6c-0.9,0.4-1.8,0.6-2.7,0.6c-1.3,0-2.3-0.3-3.2-1c-0.9-0.7-1.3-1.6-1.3-2.8 c0-2.3,1.6-3.6,4.7-4L304.3,183.9z M306.9,184.7c-0.6,0.2-1.2,0.4-1.8,0.5s-1.3,0.2-2.2,0.2c-1.2,0.1-2.2,0.4-2.8,0.8 c-0.6,0.5-1,1.1-1,2c0,0.8,0.3,1.4,0.9,1.8c0.6,0.4,1.2,0.6,2,0.6c0.6,0,1.2-0.1,1.8-0.2c0.6-0.2,1.1-0.4,1.6-0.7 c0.5-0.3,0.8-0.7,1.1-1.2s0.4-1.1,0.4-1.7V184.7z"></path> <path class="st20" d="M314,191.7h-1.5v-13.3h1.5v1.9c0.7-0.7,1.4-1.3,2-1.7c0.7-0.4,1.4-0.6,2.3-0.6c0.9,0,1.6,0.2,2.3,0.5 c0.7,0.3,1.3,0.8,1.7,1.5c0.3,0.4,0.5,0.9,0.6,1.3s0.1,1,0.1,1.7v8.7h-1.5V183c0-1.2-0.3-2.1-0.8-2.7s-1.4-0.9-2.6-0.9 c-0.9,0-1.7,0.2-2.3,0.7c-0.7,0.5-1.1,1.1-1.4,1.9c-0.1,0.4-0.2,0.8-0.3,1.1c0,0.4-0.1,0.8-0.1,1.4V191.7z"></path> <path class="st20" d="M336.3,182.6c-0.3-1-0.8-1.8-1.4-2.3c-0.7-0.5-1.5-0.8-2.5-0.8c-0.8,0-1.4,0.2-2,0.5c-0.6,0.3-1,0.7-1.4,1.3 c-0.4,0.5-0.6,1.1-0.8,1.8s-0.3,1.4-0.3,2.1c0,0.7,0.1,1.4,0.3,2.1s0.4,1.3,0.8,1.8c0.4,0.5,0.8,1,1.4,1.3c0.6,0.3,1.2,0.5,2,0.5 c1.1,0,2.1-0.3,2.8-1c0.7-0.6,1.2-1.5,1.3-2.6h1.6c-0.3,1.5-0.9,2.8-1.9,3.6s-2.3,1.3-3.9,1.3c-1,0-1.9-0.2-2.7-0.5 c-0.8-0.4-1.4-0.8-1.9-1.5c-0.5-0.6-0.9-1.4-1.1-2.2c-0.2-0.9-0.4-1.8-0.4-2.8c0-0.9,0.1-1.8,0.4-2.7s0.7-1.6,1.2-2.3 s1.2-1.2,1.9-1.6s1.6-0.6,2.6-0.6c1.6,0,2.8,0.4,3.8,1.1c1,0.8,1.5,1.9,1.8,3.4H336.3z"></path> <path class="st20" d="M341.1,195.3c0.5,0.1,1,0.2,1.3,0.2c0.6,0,1-0.2,1.3-0.7s0.6-1.1,0.9-1.9c0.2-0.5,0.3-0.9,0.4-1.1l-5.2-13.5 h1.7l4.3,11.5l4.3-11.5h1.7l-5,13.2c-0.4,1.1-0.7,1.9-1,2.5s-0.5,1.1-0.8,1.5c-0.7,1-1.5,1.5-2.4,1.5c-0.5,0-1-0.1-1.5-0.2V195.3z"></path> </g> </svg>